<?xml version="1.0" encoding="UTF-8"?>
<!DOCTYPE svg PUBLIC "-//W3C//DTD SVG 1.1//EN" "http://www.w3.org/Graphics/SVG/1.1/DTD/svg11.dtd">
<svg xmlns="http://www.w3.org/2000/svg" version="1.1" width="512px" height="512px" style="shape-rendering:geometricPrecision; text-rendering:geometricPrecision; image-rendering:optimizeQuality; fill-rule:evenodd; clip-rule:evenodd" xmlns:xlink="http://www.w3.org/1999/xlink">
<g><path style="opacity:1" fill="#0c191f" d="M 511.5,116.5 C 511.5,209.167 511.5,301.833 511.5,394.5C 505.889,414.273 492.889,425.773 472.5,429C 327.833,429.667 183.167,429.667 38.5,429C 18.1105,425.773 5.11054,414.273 -0.5,394.5C -0.5,301.833 -0.5,209.167 -0.5,116.5C 5.11054,96.7266 18.1105,85.2266 38.5,82C 183.167,81.3333 327.833,81.3333 472.5,82C 492.889,85.2266 505.889,96.7266 511.5,116.5 Z"/></g>
<g><path style="opacity:1" fill="#e61931" d="M 494.5,208.5 C 494.5,239.5 494.5,270.5 494.5,301.5C 409.332,301.167 324.332,301.501 239.5,302.5C 234.867,303.133 232.2,305.8 231.5,310.5C 225.833,310.5 220.167,310.5 214.5,310.5C 214.673,306.83 213.007,304.33 209.5,303C 196.167,302.333 182.833,302.333 169.5,303C 167.667,304.167 166.167,305.667 165,307.5C 164.5,342.498 164.333,377.498 164.5,412.5C 122.165,412.667 79.832,412.5 37.5,412C 24.5662,408.397 17.3995,399.897 16,386.5C 15.3333,298.833 15.3333,211.167 16,123.5C 17.8554,110.646 25.0221,102.479 37.5,99C 79.832,98.5 122.165,98.3333 164.5,98.5C 164.333,132.835 164.5,167.168 165,201.5C 165.392,204.455 166.892,206.622 169.5,208C 277.833,208.5 386.166,208.667 494.5,208.5 Z"/></g>
<g><path style="opacity:1" fill="#f9f9f9" d="M 494.5,122.5 C 494.5,145.5 494.5,168.5 494.5,191.5C 390.167,191.5 285.833,191.5 181.5,191.5C 181.5,160.5 181.5,129.5 181.5,98.5C 278.834,98.3333 376.167,98.5 473.5,99C 485.656,102.318 492.656,110.151 494.5,122.5 Z"/></g>
<g><path style="opacity:1" fill="#faf5f6" d="M 66.5,151.5 C 69.2706,151.421 71.9373,151.921 74.5,153C 79.3772,158.213 84.5438,163.046 90,167.5C 95.8217,162.346 101.655,157.18 107.5,152C 116.163,151 119.663,154.833 118,163.5C 113.018,169.316 107.851,174.983 102.5,180.5C 107.485,185.985 112.652,191.319 118,196.5C 119.32,206.512 115.154,210.012 105.5,207C 100.652,201.985 95.6519,197.152 90.5,192.5C 84.9831,197.851 79.3164,203.018 73.5,208C 65.162,209.326 61.3287,205.826 62,197.5C 67.134,191.365 72.634,185.531 78.5,180C 72.258,174.429 66.758,168.262 62,161.5C 61.3333,159.833 61.3333,158.167 62,156.5C 63.7073,154.963 65.2073,153.296 66.5,151.5 Z"/></g>
<g><path style="opacity:1" fill="#a6acac" d="M 494.5,122.5 C 495.498,145.661 495.831,168.994 495.5,192.5C 390.665,192.833 285.999,192.499 181.5,191.5C 285.833,191.5 390.167,191.5 494.5,191.5C 494.5,168.5 494.5,145.5 494.5,122.5 Z"/></g>
<g><path style="opacity:1" fill="#ab1929" d="M 494.5,208.5 C 495.498,239.662 495.832,270.996 495.5,302.5C 410.167,302.5 324.833,302.5 239.5,302.5C 324.332,301.501 409.332,301.167 494.5,301.5C 494.5,270.5 494.5,239.5 494.5,208.5 Z"/></g>
<g><path style="opacity:1" fill="#1f8e43" d="M 214.5,310.5 C 220.167,310.5 225.833,310.5 231.5,310.5C 231.962,315.456 234.629,318.122 239.5,318.5C 324.332,319.499 409.332,319.833 494.5,319.5C 494.5,341.833 494.5,364.167 494.5,386.5C 493.581,399.926 486.581,408.426 473.5,412C 376.167,412.5 278.834,412.667 181.5,412.5C 181.5,381.167 181.5,349.833 181.5,318.5C 191.172,318.666 200.839,318.5 210.5,318C 213.397,316.285 214.731,313.785 214.5,310.5 Z"/></g>
<g><path style="opacity:1" fill="#195b34" d="M 239.5,318.5 C 324.833,318.5 410.167,318.5 495.5,318.5C 495.831,341.339 495.497,364.006 494.5,386.5C 494.5,364.167 494.5,341.833 494.5,319.5C 409.332,319.833 324.332,319.499 239.5,318.5 Z"/></g>
</svg>
