<svg xmlns="http://www.w3.org/2000/svg" style="display: none;">
  <symbol id="icon-hamburger" viewBox="0 0 512 512">
    <path d="M64,384H448V341.33H64Zm0-106.67H448V234.67H64ZM64,128v42.67H448V128Z"/>
  </symbol>
  <symbol id="icon-close" viewBox="0 0 512 512">
    <polygon points="400 145.49 366.51 112 256 222.51 145.49 112 112 145.49 222.51 256 112 366.51 145.49 400 256 289.49 366.51 400 400 366.51 289.49 256 400 145.49"/>
  </symbol>
  <symbol id="icon-more-vertical" viewBox="0 0 24 24">
    <path stroke-linecap="round" stroke-linejoin="round" stroke-width="2" d="M5 12h.01M12 12h.01M19 12h.01M6 12a1 1 0 11-2 0 1 1 0 012 0zm7 0a1 1 0 11-2 0 1 1 0 012 0zm7 0a1 1 0 11-2 0 1 1 0 012 0z"/>
  </symbol>
</svg>
